<svg width="115" height="25" viewBox="0 0 115 25" fill="none" xmlns="http://www.w3.org/2000/svg">
<path d="M12.3614 14.388H5.14299L3.4095 19.5066H0.352051L7.18924 0.569138H10.3658L17.203 19.5066H14.0934L12.3614 14.388ZM5.89059 12.026H11.6124L8.79174 3.71895H8.7128L5.89059 12.026Z" fill="white"/>
<path d="M31.9691 12.6035C31.9691 16.894 29.6727 19.6506 26.2072 19.6506C25.3293 19.6966 24.4562 19.4943 23.688 19.0671C22.9197 18.6399 22.2872 18.005 21.863 17.235H21.7974V24.0737H18.9634V5.69927H21.7066V7.99571H21.7588C22.2025 7.22945 22.8456 6.59781 23.6197 6.16799C24.3939 5.73818 25.2701 5.52627 26.1551 5.55481C29.6592 5.55482 31.9691 8.32483 31.9691 12.6035ZM29.0561 12.6035C29.0561 9.80815 27.6115 7.97039 25.4074 7.97039C23.2421 7.97039 21.7856 9.84686 21.7856 12.6035C21.7856 15.3854 23.2421 17.2485 25.4074 17.2485C27.6115 17.2485 29.0561 15.4241 29.0561 12.6035Z" fill="white"/>
<path d="M47.1654 12.6035C47.1654 16.894 44.869 19.6506 41.4035 19.6506C40.5256 19.6966 39.6525 19.4943 38.8842 19.0671C38.116 18.6399 37.4835 18.005 37.0593 17.235H36.9937V24.0737H34.1597V5.69927H36.9029V7.99571H36.955C37.3987 7.22945 38.0418 6.59781 38.816 6.168C39.5901 5.73819 40.4663 5.52628 41.3513 5.55482C44.8556 5.55482 47.1654 8.32483 47.1654 12.6035ZM44.2524 12.6035C44.2524 9.80815 42.8078 7.97039 40.6037 7.97039C38.4383 7.97039 36.9818 9.84686 36.9818 12.6035C36.9818 15.3854 38.4383 17.2485 40.6037 17.2485C42.8078 17.2485 44.2524 15.4241 44.2524 12.6035H44.2524Z" fill="white"/>
<path d="M57.2087 14.2302C57.4187 16.1081 59.2431 17.3412 61.7361 17.3412C64.1249 17.3412 65.8435 16.1081 65.8435 14.4148C65.8435 12.9449 64.8069 12.0647 62.3526 11.4616L59.8983 10.8703C56.4209 10.0304 54.8066 8.4041 54.8066 5.76513C54.8066 2.4977 57.654 0.253387 61.6974 0.253387C65.699 0.253387 68.4422 2.4977 68.5345 5.76513H65.6736C65.5024 3.87526 63.9401 2.7345 61.6571 2.7345C59.3741 2.7345 57.8119 3.88868 57.8119 5.56856C57.8119 6.9074 58.8097 7.69522 61.2505 8.29831L63.337 8.81062C67.2225 9.72949 68.8368 11.2903 68.8368 14.0603C68.8368 17.6032 66.0147 19.8222 61.526 19.8222C57.3263 19.8222 54.4908 17.6553 54.3076 14.23L57.2087 14.2302Z" fill="white"/>
<path d="M74.9536 2.43219V5.69963H77.5792V7.94394H74.9536V15.5555C74.9536 16.738 75.4793 17.289 76.6335 17.289C76.9452 17.2836 77.2564 17.2617 77.5658 17.2235V19.4544C77.0468 19.5513 76.5194 19.5952 75.9916 19.5854C73.1963 19.5854 72.1061 18.5355 72.1061 15.8578V7.94394H70.0986V5.69963H72.1061V2.43219H74.9536Z" fill="white"/>
<path d="M79.0996 12.6038C79.0996 8.25966 81.6581 5.52985 85.6479 5.52985C89.651 5.52985 92.1976 8.2596 92.1976 12.6038C92.1976 16.9599 89.6644 19.6778 85.6479 19.6778C81.6328 19.6778 79.0996 16.9599 79.0996 12.6038ZM89.3099 12.6038C89.3099 9.62382 87.9443 7.865 85.6479 7.865C83.3514 7.865 81.9873 9.63722 81.9873 12.6038C81.9873 15.5957 83.3514 17.3412 85.6479 17.3412C87.9443 17.3412 89.3099 15.5957 89.3099 12.6038H89.3099Z" fill="white"/>
<path d="M94.5342 5.69917H97.2372V8.0492H97.3028C97.4856 7.31524 97.9156 6.6666 98.5204 6.21233C99.1252 5.75805 99.868 5.52583 100.624 5.55469C100.95 5.55355 101.276 5.58902 101.595 5.66044V8.31131C101.182 8.18532 100.752 8.12748 100.321 8.14006C99.9097 8.12335 99.4993 8.19595 99.1183 8.35285C98.7372 8.50975 98.3947 8.74724 98.1141 9.04903C97.8336 9.35081 97.6216 9.70973 97.4929 10.1012C97.3641 10.4926 97.3216 10.9072 97.3682 11.3166V19.5061H94.5342L94.5342 5.69917Z" fill="white"/>
<path d="M114.662 15.4513C114.28 17.9577 111.84 19.6778 108.717 19.6778C104.7 19.6778 102.207 16.9867 102.207 12.6693C102.207 8.33859 104.713 5.52985 108.597 5.52985C112.417 5.52985 114.82 8.15391 114.82 12.3402V13.3112H105.068V13.4825C105.023 13.9906 105.087 14.5025 105.255 14.9842C105.423 15.4658 105.691 15.9062 106.042 16.2761C106.394 16.646 106.82 16.9369 107.292 17.1295C107.764 17.3221 108.272 17.412 108.782 17.3933C109.452 17.456 110.124 17.3009 110.698 16.951C111.273 16.6011 111.719 16.0751 111.971 15.4513L114.662 15.4513ZM105.081 11.3305H111.984C112.009 10.8736 111.94 10.4164 111.781 9.98757C111.621 9.55872 111.374 9.1675 111.056 8.83846C110.738 8.50941 110.356 8.24965 109.933 8.07547C109.51 7.90129 109.055 7.81645 108.597 7.82628C108.136 7.82353 107.678 7.9122 107.251 8.08718C106.824 8.26216 106.436 8.51999 106.109 8.84578C105.782 9.17157 105.523 9.55888 105.347 9.98535C105.17 10.4118 105.08 10.869 105.081 11.3305V11.3305Z" fill="white"/>
</svg>
