<svg width="28" height="34" viewBox="0 0 28 34" fill="none" xmlns="http://www.w3.org/2000/svg">
<path d="M22.623 17.9593C22.6394 16.6864 22.9775 15.4384 23.6059 14.3313C24.2342 13.2243 25.1324 12.2941 26.2168 11.6274C25.5279 10.6435 24.6191 9.83386 23.5625 9.26266C22.5059 8.69147 21.3308 8.37451 20.1303 8.33695C17.5694 8.06815 15.0868 9.86932 13.7818 9.86932C12.4516 9.86932 10.4424 8.36364 8.27888 8.40815C6.87943 8.45336 5.51555 8.86032 4.32014 9.58936C3.12472 10.3184 2.13854 11.3447 1.45768 12.5682C-1.49167 17.6745 0.708277 25.1791 3.53351 29.3067C4.94703 31.3278 6.59903 33.5855 8.76064 33.5055C10.8759 33.4177 11.6659 32.1566 14.2192 32.1566C16.7488 32.1566 17.49 33.5055 19.6955 33.4546C21.9653 33.4177 23.3954 31.4244 24.7593 29.3841C25.7749 27.944 26.5564 26.3523 27.0749 24.668C25.7562 24.1103 24.6309 23.1767 23.8392 21.9837C23.0475 20.7907 22.6246 19.3911 22.623 17.9593Z" fill="white"/>
<path d="M18.4573 5.62215C19.6949 4.13648 20.3046 2.2269 20.157 0.29895C18.2662 0.497536 16.5197 1.40119 15.2654 2.82986C14.6522 3.5278 14.1825 4.33976 13.8832 5.21933C13.5839 6.09891 13.4609 7.02884 13.5213 7.95598C14.467 7.96571 15.4026 7.76073 16.2576 7.35647C17.1126 6.95222 17.8647 6.35922 18.4573 5.62215Z" fill="white"/>
</svg>
