<svg width="129" height="26" viewBox="0 0 129 26" fill="none" xmlns="http://www.w3.org/2000/svg">
<path d="M100.266 19.6742H103.098V0.704676H100.266V19.6742ZM125.769 7.53789L122.523 15.7621H122.426L119.058 7.53789H116.008L121.059 19.0327L118.179 25.4267H121.134L128.918 7.53789H125.769ZM109.712 17.5196C108.783 17.5196 107.49 17.056 107.49 15.9085C107.49 14.4444 109.102 13.8831 110.492 13.8831C111.738 13.8831 112.322 14.1515 113.079 14.518C112.859 16.2749 111.346 17.5196 109.712 17.5196ZM110.053 7.12288C108.003 7.12288 105.88 8.02619 105.002 10.0274L107.515 11.0765C108.052 10.0274 109.052 9.68533 110.102 9.68533C111.566 9.68533 113.055 10.5644 113.079 12.1262V12.3212C112.566 12.0284 111.469 11.5892 110.126 11.5892C107.418 11.5892 104.659 13.0775 104.659 15.8598C104.659 18.398 106.88 20.0333 109.369 20.0333C111.273 20.0333 112.322 19.1792 112.982 18.1787H113.079V19.6427H115.812V12.3698C115.812 9.0025 113.299 7.12288 110.053 7.12288ZM92.5546 9.84709H88.5274V3.34482H92.5546C94.6714 3.34482 95.8732 5.09744 95.8732 6.59588C95.8732 8.06595 94.6714 9.84709 92.5546 9.84709ZM92.4818 0.704676H85.6974V19.6742H88.5274V12.4872H92.4818C95.6198 12.4872 98.7046 10.2152 98.7046 6.59588C98.7046 2.9767 95.6198 0.704676 92.4818 0.704676ZM55.4857 17.5231C53.5296 17.5231 51.8918 15.8853 51.8918 13.6359C51.8918 11.3628 53.5296 9.7002 55.4857 9.7002C57.4169 9.7002 58.9325 11.3628 58.9325 13.6359C58.9325 15.8853 57.4169 17.5231 55.4857 17.5231ZM58.7369 8.60008H58.639C58.0037 7.84243 56.7808 7.15793 55.2409 7.15793C52.014 7.15793 49.0563 9.99352 49.0563 13.6359C49.0563 17.254 52.014 20.0653 55.2409 20.0653C56.7808 20.0653 58.0037 19.3807 58.639 18.5989H58.7369V19.5277C58.7369 21.9972 57.4169 23.3172 55.2901 23.3172C53.5545 23.3172 52.4788 22.07 52.0383 21.019L49.5696 22.0457C50.2785 23.7569 52.161 25.8594 55.2901 25.8594C58.6147 25.8594 61.4261 23.9033 61.4261 19.1365V7.54912H58.7369V8.60008ZM63.3815 19.6742H66.2173V0.704069H63.3815V19.6742ZM70.3978 13.416C70.3243 10.9223 72.329 9.65149 73.7711 9.65149C74.8964 9.65149 75.8494 10.2134 76.1665 11.0208L70.3978 13.416ZM79.1983 11.265C78.6611 9.8222 77.0223 7.15793 73.6732 7.15793C70.3486 7.15793 67.5864 9.77365 67.5864 13.6116C67.5864 17.2298 70.3243 20.0653 73.991 20.0653C76.9495 20.0653 78.6611 18.2563 79.3698 17.2053L77.1695 15.7383C76.4366 16.8141 75.4336 17.5231 73.991 17.5231C72.5489 17.5231 71.5223 16.8628 70.8619 15.5676L79.4912 11.9982L79.1983 11.265ZM10.447 9.13815V11.876H16.9985C16.8029 13.416 16.2895 14.5404 15.5072 15.3228C14.5541 16.2765 13.0628 17.3275 10.447 17.3275C6.41331 17.3275 3.25997 14.0763 3.25997 10.0427C3.25997 6.0091 6.41331 2.75743 10.447 2.75743C12.6229 2.75743 14.2114 3.61325 15.385 4.71338L17.3162 2.78232C15.6785 1.21741 13.5025 0.0195618 10.447 0.0195618C4.92199 0.0195618 0.277344 4.51778 0.277344 10.0427C0.277344 15.5676 4.92199 20.0653 10.447 20.0653C13.4297 20.0653 15.6785 19.088 17.4384 17.254C19.2474 15.445 19.8099 12.9027 19.8099 10.8495C19.8099 10.2134 19.7612 9.62722 19.6629 9.13815H10.447ZM27.2583 17.5231C25.3022 17.5231 23.6153 15.9096 23.6153 13.6116C23.6153 11.2892 25.3022 9.7002 27.2583 9.7002C29.2137 9.7002 30.9006 11.2892 30.9006 13.6116C30.9006 15.9096 29.2137 17.5231 27.2583 17.5231ZM27.2583 7.15793C23.6888 7.15793 20.7796 9.87137 20.7796 13.6116C20.7796 17.3275 23.6888 20.0653 27.2583 20.0653C30.8271 20.0653 33.7363 17.3275 33.7363 13.6116C33.7363 9.87137 30.8271 7.15793 27.2583 7.15793ZM41.3903 17.5231C39.4349 17.5231 37.7479 15.9096 37.7479 13.6116C37.7479 11.2892 39.4349 9.7002 41.3903 9.7002C43.3458 9.7002 45.0327 11.2892 45.0327 13.6116C45.0327 15.9096 43.3458 17.5231 41.3903 17.5231ZM41.3903 7.15793C37.8209 7.15793 34.9123 9.87137 34.9123 13.6116C34.9123 17.3275 37.8209 20.0653 41.3903 20.0653C44.9592 20.0653 47.8684 17.3275 47.8684 13.6116C47.8684 9.87137 44.9592 7.15793 41.3903 7.15793Z" fill="white"/>
</svg>

