<svg width="36" height="40" viewBox="0 0 36 40" fill="none" xmlns="http://www.w3.org/2000/svg">
<path d="M17.1171 19.4738L0.962402 36.6201C0.963009 36.6237 0.964223 36.6267 0.96483 36.6302C1.46025 38.492 3.16078 39.8629 5.17904 39.8629C5.98582 39.8629 6.7433 39.6448 7.39289 39.2619L7.44448 39.2317L25.6287 28.7387L17.1171 19.4738Z" fill="#EB3131"/>
<path d="M33.4607 16.5541L33.4452 16.5434L25.5946 11.9924L16.75 19.8627L25.6254 28.7369L33.4346 24.2311C34.8037 23.492 35.7331 22.0486 35.7331 20.3842C35.7331 18.7318 34.8162 17.2956 33.4607 16.5541Z" fill="#F6B60B"/>
<path d="M0.961633 4.07714C0.864521 4.43525 0.813477 4.81034 0.813477 5.19985V35.4982C0.813477 35.887 0.863914 36.2633 0.96224 36.6202L17.6729 19.9125L0.961633 4.07714Z" fill="#5778C5"/>
<path d="M17.2359 20.3487L25.5975 11.9895L7.43394 1.45857C6.77373 1.06314 6.00321 0.834934 5.17867 0.834934C3.16041 0.834934 1.45761 2.20831 0.962032 4.0724C0.961425 4.07423 0.961426 4.07544 0.961426 4.07711L17.2359 20.3487Z" fill="#3BAD49"/>
</svg>
